<svg xmlns="http://www.w3.org/2000/svg" xmlns:xlink="http://www.w3.org/1999/xlink" contentStyleType="text/css" data-diagram-type="DESCRIPTION" height="421px" preserveAspectRatio="none" style="width:745px;height:421px;background:#FFFFFF;" version="1.1" viewBox="0 0 745 421" width="745px" zoomAndPan="magnify"><defs/><g><!--cluster M?dulo 2 - Produ??o--><g class="cluster" data-entity="M.dulo 2 - Produ..o" data-source-line="6" data-uid="ent0004" id="cluster_M.dulo 2 - Produ..o"><rect fill="none" height="314" rx="2.5" ry="2.5" style="stroke:#181818;stroke-width:1;" width="632.3" x="106.87" y="7"/><text fill="#000000" font-family="sans-serif" font-size="14" font-weight="bold" lengthAdjust="spacing" textLength="162.2646" x="341.8877" y="21.9951">M&#243;dulo 2 - Produ&#231;&#227;o</text></g><!--entity Receber pedido para produ??o--><g class="entity" data-entity="Receber pedido para produ..o" data-source-line="8" data-uid="ent0005" id="entity_Receber pedido para produ..o"><ellipse cx="241.5785" cy="68.0017" fill="#F1F1F1" rx="118.7085" ry="26.1417" style="stroke:#181818;stroke-width:0.5;"/><text fill="#000000" font-family="sans-serif" font-size="14" lengthAdjust="spacing" textLength="216.5967" x="133.2802" y="72.6501">Receber pedido para produ&#231;&#227;o</text></g><!--entity Verificar materiais--><g class="entity" data-entity="Verificar materiais" data-source-line="9" data-uid="ent0007" id="entity_Verificar materiais"><ellipse cx="241.5827" cy="146.9965" fill="#F1F1F1" rx="79.2327" ry="18.2465" style="stroke:#181818;stroke-width:0.5;"/><text fill="#000000" font-family="sans-serif" font-size="14" lengthAdjust="spacing" textLength="128.8643" x="177.1506" y="151.645">Verificar materiais</text></g><!--entity Solicitar compra ao financeiro--><g class="entity" data-entity="Solicitar compra ao financeiro" data-source-line="11" data-uid="ent0009" id="entity_Solicitar compra ao financeiro"><ellipse cx="604.2323" cy="125.9985" fill="#F1F1F1" rx="115.5923" ry="25.5185" style="stroke:#181818;stroke-width:0.5;"/><text fill="#000000" font-family="sans-serif" font-size="14" lengthAdjust="spacing" textLength="209.9248" x="499.2699" y="130.6469">Solicitar compra ao financeiro</text></g><!--entity Iniciar produ??o--><g class="entity" data-entity="Iniciar produ..o" data-source-line="13" data-uid="ent0011" id="entity_Iniciar produ..o"><ellipse cx="241.5773" cy="216.9975" fill="#F1F1F1" rx="72.6873" ry="16.9375" style="stroke:#181818;stroke-width:0.5;"/><text fill="#000000" font-family="sans-serif" font-size="14" lengthAdjust="spacing" textLength="113.0732" x="185.0406" y="221.6459">Iniciar produ&#231;&#227;o</text></g><!--entity Produzir pe?a--><g class="entity" data-entity="Produzir pe.a" data-source-line="14" data-uid="ent0013" id="entity_Produzir pe.a"><ellipse cx="604.2322" cy="202.0024" fill="#F1F1F1" rx="65.8622" ry="15.5724" style="stroke:#181818;stroke-width:0.5;"/><text fill="#000000" font-family="sans-serif" font-size="14" lengthAdjust="spacing" textLength="95.7441" x="556.3602" y="206.6509">Produzir pe&#231;a</text></g><!--entity Concluir produ??o--><g class="entity" data-entity="Concluir produ..o" data-source-line="16" data-uid="ent0015" id="entity_Concluir produ..o"><ellipse cx="241.5804" cy="286.9981" fill="#F1F1F1" rx="78.6904" ry="18.1381" style="stroke:#181818;stroke-width:0.5;"/><text fill="#000000" font-family="sans-serif" font-size="14" lengthAdjust="spacing" textLength="127.5791" x="177.7908" y="291.6465">Concluir produ&#231;&#227;o</text></g><!--entity Atualizar status para conclu?do--><g class="entity" data-entity="Atualizar status para conclu.do" data-source-line="17" data-uid="ent0017" id="entity_Atualizar status para conclu.do"><ellipse cx="604.2289" cy="278.9978" fill="#F1F1F1" rx="118.9389" ry="26.1878" style="stroke:#181818;stroke-width:0.5;"/><text fill="#000000" font-family="sans-serif" font-size="14" lengthAdjust="spacing" textLength="217.0889" x="495.6844" y="283.6462">Atualizar status para conclu&#237;do</text></g><!--entity Artes?o--><g class="entity" data-entity="Artes.o" data-source-line="3" data-uid="ent0002" id="entity_Artes.o"><ellipse cx="32.937" cy="160.35" fill="#F1F1F1" rx="8" ry="8" style="stroke:#181818;stroke-width:0.5;"/><path d="M32.937,168.35 L32.937,195.35 M19.937,176.35 L45.937,176.35 M32.937,195.35 L19.937,210.35 M32.937,195.35 L45.937,210.35" fill="none" style="stroke:#181818;stroke-width:0.5;"/><text fill="#000000" font-family="sans-serif" font-size="14" lengthAdjust="spacing" textLength="53.874" x="6" y="224.8451">Artes&#227;o</text></g><!--entity Sistema--><g class="entity" data-entity="Sistema" data-source-line="4" data-uid="ent0003" id="entity_Sistema"><ellipse cx="241.5816" cy="348.35" fill="#F1F1F1" rx="8" ry="8" style="stroke:#181818;stroke-width:0.5;"/><path d="M241.5816,356.35 L241.5816,383.35 M228.5816,364.35 L254.5816,364.35 M241.5816,383.35 L228.5816,398.35 M241.5816,383.35 L254.5816,398.35" fill="none" style="stroke:#181818;stroke-width:0.5;"/><text fill="#000000" font-family="sans-serif" font-size="14" lengthAdjust="spacing" textLength="141.2031" x="170.98" y="412.8451">Sistema Autom&#225;tico</text></g><!--link Artes?o to Receber pedido para produ??o--><g class="link" data-entity-1="Artes.o" data-entity-2="Receber pedido para produ..o" data-source-line="8" data-uid="lnk6" id="link_Artes.o_Receber pedido para produ..o"><path d="M58.27,151.59 C69.14,137.08 83.08,121.55 98.87,111 C115.12,100.15 128.518,93.8173 147.328,87.6573" fill="none" id="Artes&#227;o-to-Receber pedido para produ&#231;&#227;o" style="stroke:#181818;stroke-width:1;"/><polygon fill="#181818" points="153.03,85.79,143.2321,84.7896,148.2783,87.3461,145.7219,92.3923,153.03,85.79" style="stroke:#181818;stroke-width:1;"/></g><!--link Artes?o to Verificar materiais--><g class="link" data-entity-1="Artes.o" data-entity-2="Verificar materiais" data-source-line="9" data-uid="lnk8" id="link_Artes.o_Verificar materiais"><path d="M60.36,183.68 C69.67,181.5 80.23,179.08 89.87,177 C119.34,170.65 146.2719,165.2132 173.7419,159.8332" fill="none" id="Artes&#227;o-to-Verificar materiais" style="stroke:#181818;stroke-width:1;"/><polygon fill="#181818" points="179.63,158.68,170.029,156.4844,174.7232,159.641,171.5666,164.3352,179.63,158.68" style="stroke:#181818;stroke-width:1;"/></g><!--link Verificar materiais to Solicitar compra ao financeiro--><g class="link" data-entity-1="Verificar materiais" data-entity-2="Solicitar compra ao financeiro" data-source-line="11" data-uid="lnk10" id="link_Verificar materiais_Solicitar compra ao financeiro"><path d="M318.63,142.57 C368.95,139.64 429.7901,136.0982 486.0401,132.8282" fill="none" id="Verificar materiais-to-Solicitar compra ao financeiro" style="stroke:#181818;stroke-width:1;"/><polygon fill="#181818" points="492.03,132.48,482.813,129.0091,487.0384,132.7702,483.2773,136.9956,492.03,132.48" style="stroke:#181818;stroke-width:1;"/><text fill="#000000" font-family="sans-serif" font-size="13" lengthAdjust="spacing" textLength="61.1851" x="392.29" y="131.0669">&#171;extend&#187;</text></g><!--link Artes?o to Iniciar produ??o--><g class="link" data-entity-1="Artes.o" data-entity-2="Iniciar produ..o" data-source-line="13" data-uid="lnk12" id="link_Artes.o_Iniciar produ..o"><path d="M60.11,193.42 C89.43,197.25 132.0707,202.8218 171.4407,207.9718" fill="none" id="Artes&#227;o-to-Iniciar produ&#231;&#227;o" style="stroke:#181818;stroke-width:1;"/><polygon fill="#181818" points="177.39,208.75,168.9848,203.6164,172.4322,208.1015,167.9472,211.5489,177.39,208.75" style="stroke:#181818;stroke-width:1;"/></g><!--link Iniciar produ??o to Produzir pe?a--><g class="link" data-entity-1="Iniciar produ..o" data-entity-2="Produzir pe.a" data-source-line="14" data-uid="lnk14" id="link_Iniciar produ..o_Produzir pe.a"><path d="M313.4,214.06 C378.95,211.33 469.5552,207.5588 532.9252,204.9288" fill="none" id="Iniciar produ&#231;&#227;o-to-Produzir pe&#231;a" style="stroke:#181818;stroke-width:1;"/><polygon fill="#181818" points="538.92,204.68,529.7619,201.0566,533.9243,204.8873,530.0936,209.0498,538.92,204.68" style="stroke:#181818;stroke-width:1;"/><text fill="#000000" font-family="sans-serif" font-size="13" lengthAdjust="spacing" textLength="63.0068" x="391.29" y="205.0669">&#171;include&#187;</text></g><!--link Artes?o to Concluir produ??o--><g class="link" data-entity-1="Artes.o" data-entity-2="Concluir produ..o" data-source-line="16" data-uid="lnk16" id="link_Artes.o_Concluir produ..o"><path d="M60.2,220.48 C71.15,231.53 84.63,243.19 98.87,251 C121.91,263.63 143.6192,270.6453 168.2992,276.0553" fill="none" id="Artes&#227;o-to-Concluir produ&#231;&#227;o" style="stroke:#181818;stroke-width:1;"/><polygon fill="#181818" points="174.16,277.34,166.2252,271.5057,169.276,276.2694,164.5123,279.3201,174.16,277.34" style="stroke:#181818;stroke-width:1;"/></g><!--link Concluir produ??o to Atualizar status para conclu?do--><g class="link" data-entity-1="Concluir produ..o" data-entity-2="Atualizar status para conclu.do" data-source-line="17" data-uid="lnk18" id="link_Concluir produ..o_Atualizar status para conclu.do"><path d="M320.39,285.28 C368.54,284.21 425.2815,282.954 479.4415,281.744" fill="none" id="Concluir produ&#231;&#227;o-to-Atualizar status para conclu&#237;do" style="stroke:#181818;stroke-width:1;"/><polygon fill="#181818" points="485.44,281.61,476.3529,277.812,480.4412,281.7217,476.5316,285.81,485.44,281.61" style="stroke:#181818;stroke-width:1;"/><text fill="#000000" font-family="sans-serif" font-size="13" lengthAdjust="spacing" textLength="63.0068" x="391.29" y="279.0669">&#171;include&#187;</text></g><!--link Sistema to Atualizar status para conclu?do--><g class="link" data-entity-1="Sistema" data-entity-2="Atualizar status para conclu.do" data-source-line="19" data-uid="lnk19" id="link_Sistema_Atualizar status para conclu.do"><path d="M312.55,358.8 C374.61,341.76 459.234,318.528 522.704,301.108" fill="none" id="Sistema-to-Atualizar status para conclu&#237;do" style="stroke:#181818;stroke-width:1;"/><polygon fill="#181818" points="528.49,299.52,518.7523,298.0447,523.6683,300.8434,520.8696,305.7594,528.49,299.52" style="stroke:#181818;stroke-width:1;"/></g><!--SRC=[ZP6nIWGn48RxFCMmbLjSOod7mc9b8OW7zcCoUmxiPfPa0dBYmuZ5LLO-mhwOsSkTXQGmLJ9_ll-VIKOQ55GWyFv5mN4WgopU6BGg0VgW59TFEH-R7KUb2Q5FAjFoeMob0OnmhXkpykZt8q5pltoxD0fSmmOUWhYq7BDJ0s_6G5uNQzXiEhXw94lF560cnqvWne0m_q9jXNYYm0DR332XvZroR8jpLIhGJaQsh5cnCiqv0mK6zkWjSP0MRc2xfLSbxxgkrkQTptYc_xPM4mfnclp0wsJB4Ki2UpicH_M8MrbLhcJKbCBqcd3aGywFYffYUJzxkhzyEQd6NlxoVmxc_GS0]--></g></svg>