<svg xmlns="http://www.w3.org/2000/svg" xmlns:xlink="http://www.w3.org/1999/xlink" contentStyleType="text/css" data-diagram-type="DESCRIPTION" height="407px" preserveAspectRatio="none" style="width:704px;height:407px;background:#FFFFFF;" version="1.1" viewBox="0 0 704 407" width="704px" zoomAndPan="magnify"><defs/><g><!--cluster M?dulo 6 - Log?stica e Entrega--><g class="cluster" data-entity="M.dulo 6 - Log.stica e Entrega" data-source-line="7" data-uid="ent0005" id="cluster_M.dulo 6 - Log.stica e Entrega"><rect fill="none" height="300" rx="2.5" ry="2.5" style="stroke:#181818;stroke-width:1;" width="583.21" x="115.09" y="7"/><text fill="#000000" font-family="sans-serif" font-size="14" font-weight="bold" lengthAdjust="spacing" textLength="240.3926" x="286.4987" y="21.9951">M&#243;dulo 6 - Log&#237;stica e Entrega</text></g><!--entity Separar produto--><g class="entity" data-entity="Separar produto" data-source-line="9" data-uid="ent0006" id="entity_Separar produto"><ellipse cx="225.1392" cy="58.9958" fill="#F1F1F1" rx="73.2792" ry="17.0558" style="stroke:#181818;stroke-width:0.5;"/><text fill="#000000" font-family="sans-serif" font-size="14" lengthAdjust="spacing" textLength="114.5293" x="167.8746" y="63.6443">Separar produto</text></g><!--entity Realizar entrega--><g class="entity" data-entity="Realizar entrega" data-source-line="10" data-uid="ent0008" id="entity_Realizar entrega"><ellipse cx="225.1439" cy="127.9968" fill="#F1F1F1" rx="73.7339" ry="17.1468" style="stroke:#181818;stroke-width:0.5;"/><text fill="#000000" font-family="sans-serif" font-size="14" lengthAdjust="spacing" textLength="115.6436" x="167.3221" y="132.6452">Realizar entrega</text></g><!--entity Confirmar recebimento--><g class="entity" data-entity="Confirmar recebimento" data-source-line="12" data-uid="ent0010" id="entity_Confirmar recebimento"><ellipse cx="225.1373" cy="200.9995" fill="#F1F1F1" rx="94.0473" ry="21.2095" style="stroke:#181818;stroke-width:0.5;"/><text fill="#000000" font-family="sans-serif" font-size="14" lengthAdjust="spacing" textLength="162.8457" x="143.7144" y="205.6479">Confirmar recebimento</text></g><!--entity Avaliar produto--><g class="entity" data-entity="Avaliar produto" data-source-line="13" data-uid="ent0012" id="entity_Avaliar produto"><ellipse cx="225.1369" cy="274.0014" fill="#F1F1F1" rx="70.6569" ry="16.5314" style="stroke:#181818;stroke-width:0.5;"/><text fill="#000000" font-family="sans-serif" font-size="14" lengthAdjust="spacing" textLength="108.0283" x="171.1227" y="278.6498">Avaliar produto</text></g><!--entity Registrar finaliza??o do pedido--><g class="entity" data-entity="Registrar finaliza..o do pedido" data-source-line="15" data-uid="ent0014" id="entity_Registrar finaliza..o do pedido"><ellipse cx="563.2373" cy="261.0015" fill="#F1F1F1" rx="119.0573" ry="26.2115" style="stroke:#181818;stroke-width:0.5;"/><text fill="#000000" font-family="sans-serif" font-size="14" lengthAdjust="spacing" textLength="217.3418" x="454.5664" y="265.6499">Registrar finaliza&#231;&#227;o do pedido</text></g><!--entity Log--><g class="entity" data-entity="Log" data-source-line="3" data-uid="ent0002" id="entity_Log"><ellipse cx="37.0454" cy="76.35" fill="#F1F1F1" rx="8" ry="8" style="stroke:#181818;stroke-width:0.5;"/><path d="M37.0454,84.35 L37.0454,111.35 M24.0454,92.35 L50.0454,92.35 M37.0454,111.35 L24.0454,126.35 M37.0454,111.35 L50.0454,126.35" fill="none" style="stroke:#181818;stroke-width:0.5;"/><text fill="#000000" font-family="sans-serif" font-size="14" lengthAdjust="spacing" textLength="62.0908" x="6" y="140.8451">Logistica</text></g><!--entity Cliente--><g class="entity" data-entity="Cliente" data-source-line="4" data-uid="ent0003" id="entity_Cliente"><ellipse cx="37.0418" cy="196.35" fill="#F1F1F1" rx="8" ry="8" style="stroke:#181818;stroke-width:0.5;"/><path d="M37.0418,204.35 L37.0418,231.35 M24.0418,212.35 L50.0418,212.35 M37.0418,231.35 L24.0418,246.35 M37.0418,231.35 L50.0418,246.35" fill="none" style="stroke:#181818;stroke-width:0.5;"/><text fill="#000000" font-family="sans-serif" font-size="14" lengthAdjust="spacing" textLength="49.1436" x="12.47" y="260.8451">Cliente</text></g><!--entity Sistema--><g class="entity" data-entity="Sistema" data-source-line="5" data-uid="ent0004" id="entity_Sistema"><ellipse cx="225.1416" cy="334.35" fill="#F1F1F1" rx="8" ry="8" style="stroke:#181818;stroke-width:0.5;"/><path d="M225.1416,342.35 L225.1416,369.35 M212.1416,350.35 L238.1416,350.35 M225.1416,369.35 L212.1416,384.35 M225.1416,369.35 L238.1416,384.35" fill="none" style="stroke:#181818;stroke-width:0.5;"/><text fill="#000000" font-family="sans-serif" font-size="14" lengthAdjust="spacing" textLength="141.2031" x="154.54" y="398.8451">Sistema Autom&#225;tico</text></g><!--link Log to Separar produto--><g class="link" data-entity-1="Log" data-entity-2="Separar produto" data-source-line="9" data-uid="lnk7" id="link_Log_Separar produto"><path d="M68.48,96.46 C77.93,93.61 88.41,90.56 98.09,88 C121.54,81.8 141.776,76.9855 164.116,71.9655" fill="none" id="Log-to-Separar produto" style="stroke:#181818;stroke-width:1;"/><polygon fill="#181818" points="169.97,70.65,160.312,68.7205,165.0916,71.7462,162.0659,76.5259,169.97,70.65" style="stroke:#181818;stroke-width:1;"/></g><!--link Log to Realizar entrega--><g class="link" data-entity-1="Log" data-entity-2="Realizar entrega" data-source-line="10" data-uid="lnk9" id="link_Log_Realizar entrega"><path d="M68.36,109.59 C92.77,112.47 122.0016,115.9249 152.7616,119.5649" fill="none" id="Log-to-Realizar entrega" style="stroke:#181818;stroke-width:1;"/><polygon fill="#181818" points="158.72,120.27,150.2524,115.2401,153.7546,119.6824,149.3123,123.1846,158.72,120.27" style="stroke:#181818;stroke-width:1;"/></g><!--link Cliente to Confirmar recebimento--><g class="link" data-entity-1="Cliente" data-entity-2="Confirmar recebimento" data-source-line="12" data-uid="lnk11" id="link_Cliente_Confirmar recebimento"><path d="M61.99,222.78 C82.71,220 107.9333,216.608 137.4433,212.648" fill="none" id="Cliente-to-Confirmar recebimento" style="stroke:#181818;stroke-width:1;"/><polygon fill="#181818" points="143.39,211.85,133.938,209.0825,138.4344,212.515,135.002,217.0115,143.39,211.85" style="stroke:#181818;stroke-width:1;"/></g><!--link Cliente to Avaliar produto--><g class="link" data-entity-1="Cliente" data-entity-2="Avaliar produto" data-source-line="13" data-uid="lnk13" id="link_Cliente_Avaliar produto"><path d="M61.99,232.18 C90.76,239.6 133.89,250.7219 170.5,260.1619" fill="none" id="Cliente-to-Avaliar produto" style="stroke:#181818;stroke-width:1;"/><polygon fill="#181818" points="176.31,261.66,168.5938,255.5395,171.4684,260.4116,166.5963,263.2861,176.31,261.66" style="stroke:#181818;stroke-width:1;"/></g><!--link Avaliar produto to Registrar finaliza??o do pedido--><g class="link" data-entity-1="Avaliar produto" data-entity-2="Registrar finaliza..o do pedido" data-source-line="15" data-uid="lnk15" id="link_Avaliar produto_Registrar finaliza..o do pedido"><path d="M295.37,271.32 C338.61,269.65 389.3845,267.6923 439.4545,265.7523" fill="none" id="Avaliar produto-to-Registrar finaliza&#231;&#227;o do pedido" style="stroke:#181818;stroke-width:1;"/><polygon fill="#181818" points="445.45,265.52,436.3019,261.8714,440.4537,265.7136,436.6116,269.8655,445.45,265.52" style="stroke:#181818;stroke-width:1;"/><text fill="#000000" font-family="sans-serif" font-size="13" lengthAdjust="spacing" textLength="63.0068" x="350.19" y="264.0669">&#171;include&#187;</text></g><!--link Sistema to Registrar finaliza??o do pedido--><g class="link" data-entity-1="Sistema" data-entity-2="Registrar finaliza..o do pedido" data-source-line="17" data-uid="lnk16" id="link_Sistema_Registrar finaliza..o do pedido"><path d="M296.19,342.53 C353.71,324.91 429.0433,301.8179 486.5433,284.1979" fill="none" id="Sistema-to-Registrar finaliza&#231;&#227;o do pedido" style="stroke:#181818;stroke-width:1;"/><polygon fill="#181818" points="492.28,282.44,482.503,281.2524,487.4994,283.9049,484.8469,288.9014,492.28,282.44" style="stroke:#181818;stroke-width:1;"/></g><!--SRC=[ZP0nRiCm34LtdOBmr0nUEnI1WI3erYxD2LYBTWd8eg786LBqC466Jfrw15siLAG03RgK6_aVFp_eQ8WG1GAFRn4i1-eZYpS6-oW1dcJaVUGU0VUvgUEjO_AHQjVibA49ORD4cT99UMdoGfqRartHZuwWUKxVTd42zz1cm_HLx0aUVGmqOWFlne2MYj2s7TpjQCQ00UOWLW-iRjKNGiT7bQdihyfsJLYOhVY1mwIG1g5NdbIgFZVSvg1UlozTa3_Zw-7ycXniO7_9a3xJMS0Ap6JPAlS0wpNxtYsMkgwONL_rJmlpyGC0]--></g></svg>