<svg xmlns="http://www.w3.org/2000/svg" xmlns:xlink="http://www.w3.org/1999/xlink" contentStyleType="text/css" data-diagram-type="DESCRIPTION" height="273px" preserveAspectRatio="none" style="width:688px;height:273px;background:#FFFFFF;" version="1.1" viewBox="0 0 688 273" width="688px" zoomAndPan="magnify"><defs/><g><!--cluster M?dulo 5 - Pagamento e Libera??o--><g class="cluster" data-entity="M.dulo 5 - Pagamento e Libera..o" data-source-line="7" data-uid="ent0005" id="cluster_M.dulo 5 - Pagamento e Libera..o"><rect fill="none" height="164" rx="2.5" ry="2.5" style="stroke:#181818;stroke-width:1;" width="556.67" x="125.79" y="8.65"/><text fill="#000000" font-family="sans-serif" font-size="14" font-weight="bold" lengthAdjust="spacing" textLength="273.8613" x="267.1943" y="23.6451">M&#243;dulo 5 - Pagamento e Libera&#231;&#227;o</text></g><!--entity Efetuar pagamento--><g class="entity" data-entity="Efetuar pagamento" data-source-line="9" data-uid="ent0006" id="entity_Efetuar pagamento"><ellipse cx="232.0492" cy="62.6538" fill="#F1F1F1" rx="82.1192" ry="18.8238" style="stroke:#181818;stroke-width:0.5;"/><text fill="#000000" font-family="sans-serif" font-size="14" lengthAdjust="spacing" textLength="135.6455" x="164.2265" y="67.3023">Efetuar pagamento</text></g><!--entity Confirmar pagamento--><g class="entity" data-entity="Confirmar pagamento" data-source-line="10" data-uid="ent0008" id="entity_Confirmar pagamento"><ellipse cx="232.0465" cy="136.6513" fill="#F1F1F1" rx="90.2565" ry="20.4513" style="stroke:#181818;stroke-width:0.5;"/><text fill="#000000" font-family="sans-serif" font-size="14" lengthAdjust="spacing" textLength="154.3213" x="154.8858" y="141.2997">Confirmar pagamento</text></g><!--entity Liberar pedido para entrega--><g class="entity" data-entity="Liberar pedido para entrega" data-source-line="11" data-uid="ent0010" id="entity_Liberar pedido para entrega"><ellipse cx="556.88" cy="127.646" fill="#F1F1F1" rx="109.58" ry="24.316" style="stroke:#181818;stroke-width:0.5;"/><text fill="#000000" font-family="sans-serif" font-size="14" lengthAdjust="spacing" textLength="196.9707" x="458.3946" y="132.2944">Liberar pedido para entrega</text></g><!--entity Cliente--><g class="entity" data-entity="Cliente" data-source-line="3" data-uid="ent0002" id="entity_Cliente"><ellipse cx="42.3918" cy="14" fill="#F1F1F1" rx="8" ry="8" style="stroke:#181818;stroke-width:0.5;"/><path d="M42.3918,22 L42.3918,49 M29.3918,30 L55.3918,30 M42.3918,49 L29.3918,64 M42.3918,49 L55.3918,64" fill="none" style="stroke:#181818;stroke-width:0.5;"/><text fill="#000000" font-family="sans-serif" font-size="14" lengthAdjust="spacing" textLength="49.1436" x="17.82" y="78.4951">Cliente</text></g><!--entity Financeiro--><g class="entity" data-entity="Financeiro" data-source-line="4" data-uid="ent0003" id="entity_Financeiro"><ellipse cx="42.3945" cy="125" fill="#F1F1F1" rx="8" ry="8" style="stroke:#181818;stroke-width:0.5;"/><path d="M42.3945,133 L42.3945,160 M29.3945,141 L55.3945,141 M42.3945,160 L29.3945,175 M42.3945,160 L55.3945,175" fill="none" style="stroke:#181818;stroke-width:0.5;"/><text fill="#000000" font-family="sans-serif" font-size="14" lengthAdjust="spacing" textLength="72.7891" x="6" y="189.4951">Financeiro</text></g><!--entity Sistema--><g class="entity" data-entity="Sistema" data-source-line="5" data-uid="ent0004" id="entity_Sistema"><ellipse cx="232.0416" cy="201" fill="#F1F1F1" rx="8" ry="8" style="stroke:#181818;stroke-width:0.5;"/><path d="M232.0416,209 L232.0416,236 M219.0416,217 L245.0416,217 M232.0416,236 L219.0416,251 M232.0416,236 L245.0416,251" fill="none" style="stroke:#181818;stroke-width:0.5;"/><text fill="#000000" font-family="sans-serif" font-size="14" lengthAdjust="spacing" textLength="141.2031" x="161.44" y="265.4951">Sistema Autom&#225;tico</text></g><!--link Cliente to Efetuar pagamento--><g class="link" data-entity-1="Cliente" data-entity-2="Efetuar pagamento" data-source-line="9" data-uid="lnk7" id="link_Cliente_Efetuar pagamento"><path d="M67.16,46.06 C89.65,48.33 118.6306,51.265 150.5006,54.495" fill="none" id="Cliente-to-Efetuar pagamento" style="stroke:#181818;stroke-width:1;"/><polygon fill="#181818" points="156.47,55.1,147.9192,50.2129,151.4955,54.5958,147.1125,58.1721,156.47,55.1" style="stroke:#181818;stroke-width:1;"/></g><!--link Financeiro to Confirmar pagamento--><g class="link" data-entity-1="Financeiro" data-entity-2="Confirmar pagamento" data-source-line="10" data-uid="lnk9" id="link_Financeiro_Confirmar pagamento"><path d="M79.13,151.22 C98.8,149.34 118.1174,147.4831 142.3974,145.1531" fill="none" id="Financeiro-to-Confirmar pagamento" style="stroke:#181818;stroke-width:1;"/><polygon fill="#181818" points="148.37,144.58,139.0291,141.458,143.3929,145.0576,139.7933,149.4214,148.37,144.58" style="stroke:#181818;stroke-width:1;"/></g><!--link Confirmar pagamento to Liberar pedido para entrega--><g class="link" data-entity-1="Confirmar pagamento" data-entity-2="Liberar pedido para entrega" data-source-line="11" data-uid="lnk11" id="link_Confirmar pagamento_Liberar pedido para entrega"><path d="M322.12,134.17 C361.03,133.08 401.0223,131.9674 441.8623,130.8274" fill="none" id="Confirmar pagamento-to-Liberar pedido para entrega" style="stroke:#181818;stroke-width:1;"/><polygon fill="#181818" points="447.86,130.66,438.7519,126.9127,442.8619,130.7995,438.9751,134.9096,447.86,130.66" style="stroke:#181818;stroke-width:1;"/><text fill="#000000" font-family="sans-serif" font-size="13" lengthAdjust="spacing" textLength="63.0068" x="353.3" y="127.7169">&#171;include&#187;</text></g><!--link Sistema to Liberar pedido para entrega--><g class="link" data-entity-1="Sistema" data-entity-2="Liberar pedido para entrega" data-source-line="13" data-uid="lnk12" id="link_Sistema_Liberar pedido para entrega"><path d="M303.1,208.3 C359.56,190.29 432.5637,166.9933 487.0837,149.6033" fill="none" id="Sistema-to-Liberar pedido para entrega" style="stroke:#181818;stroke-width:1;"/><polygon fill="#181818" points="492.8,147.78,483.0101,146.7041,488.0365,149.2994,485.4411,154.3258,492.8,147.78" style="stroke:#181818;stroke-width:1;"/></g><!--SRC=[XKyxJiH03Etd54-fs28bpMeL2QsW0cabJc1cd61fCaPUfq8S1b5m08wGYp6xoOe29DpvVVoUC_SELvWCpuuanj55ImWKNGtxB5oSr-rE2fN8Ohe2pQCSdKV2pUGwpkykKHlG4IiUmkaUbI4pceVvAqrPSOqM1nfeh9SLZ7jvOgFvS_wetjSGK6VDHTjskBhjsISol5nCcxFcfyqYsslfnSRVmZ-PnRDaLvoJ9Asq4IfjFD06M-nsKcAU4dVTqkloxx_cyFOD]--></g></svg>