<svg xmlns="http://www.w3.org/2000/svg" xmlns:xlink="http://www.w3.org/1999/xlink" contentStyleType="text/css" data-diagram-type="DESCRIPTION" height="311px" preserveAspectRatio="none" style="width:1103px;height:311px;background:#FFFFFF;" version="1.1" viewBox="0 0 1103 311" width="1103px" zoomAndPan="magnify"><defs/><g><!--cluster M?dulo 1 - Solicita??o do Pedido--><g class="cluster" data-entity="M.dulo 1 - Solicita..o do Pedido" data-source-line="7" data-uid="ent0005" id="cluster_M.dulo 1 - Solicita..o do Pedido"><rect fill="none" height="207" rx="2.5" ry="2.5" style="stroke:#181818;stroke-width:1;" width="903.61" x="194.2" y="7"/><text fill="#000000" font-family="sans-serif" font-size="14" font-weight="bold" lengthAdjust="spacing" textLength="257.6328" x="517.1886" y="21.9951">M&#243;dulo 1 - Solicita&#231;&#227;o do Pedido</text></g><!--entity Solicitar pedido personalizado--><g class="entity" data-entity="Solicitar pedido personalizado" data-source-line="10" data-uid="ent0006" id="entity_Solicitar pedido personalizado"><ellipse cx="334.3027" cy="75.9985" fill="#F1F1F1" rx="116.0927" ry="25.6185" style="stroke:#181818;stroke-width:0.5;"/><text fill="#000000" font-family="sans-serif" font-size="14" lengthAdjust="spacing" textLength="210.998" x="228.8037" y="80.647">Solicitar pedido personalizado</text></g><!--entity Registrar informa??es do pedido--><g class="entity" data-entity="Registrar informa..es do pedido" data-source-line="14" data-uid="ent0008" id="entity_Registrar informa..es do pedido"><ellipse cx="949.3058" cy="76.9992" fill="#F1F1F1" rx="124.4958" ry="27.2992" style="stroke:#181818;stroke-width:0.5;"/><text fill="#000000" font-family="sans-serif" font-size="14" lengthAdjust="spacing" textLength="228.9219" x="834.8449" y="81.6476">Registrar informa&#231;&#245;es do pedido</text></g><!--entity Confirmar abertura do pedido--><g class="entity" data-entity="Confirmar abertura do pedido" data-source-line="15" data-uid="ent0010" id="entity_Confirmar abertura do pedido"><ellipse cx="949.3095" cy="164.9959" fill="#F1F1F1" rx="115.0795" ry="25.4159" style="stroke:#181818;stroke-width:0.5;"/><text fill="#000000" font-family="sans-serif" font-size="14" lengthAdjust="spacing" textLength="208.8242" x="844.8974" y="169.6443">Confirmar abertura do pedido</text></g><!--entity Validar dados do pedido--><g class="entity" data-entity="Validar dados do pedido" data-source-line="19" data-uid="ent0012" id="entity_Validar dados do pedido"><ellipse cx="334.305" cy="158.003" fill="#F1F1F1" rx="97.215" ry="21.843" style="stroke:#181818;stroke-width:0.5;"/><text fill="#000000" font-family="sans-serif" font-size="14" lengthAdjust="spacing" textLength="169.9004" x="249.3548" y="162.6514">Validar dados do pedido</text></g><!--entity Criar pedido--><g class="entity" data-entity="Criar pedido" data-source-line="20" data-uid="ent0014" id="entity_Criar pedido"><ellipse cx="637.6024" cy="163.0025" fill="#F1F1F1" rx="62.2124" ry="14.8425" style="stroke:#181818;stroke-width:0.5;"/><text fill="#000000" font-family="sans-serif" font-size="14" lengthAdjust="spacing" textLength="85.9346" x="594.6352" y="167.6509">Criar pedido</text></g><!--entity Cliente--><g class="entity" data-entity="Cliente" data-source-line="3" data-uid="ent0002" id="entity_Cliente"><ellipse cx="76.6018" cy="46.35" fill="#F1F1F1" rx="8" ry="8" style="stroke:#181818;stroke-width:0.5;"/><path d="M76.6018,54.35 L76.6018,81.35 M63.6018,62.35 L89.6018,62.35 M76.6018,81.35 L63.6018,96.35 M76.6018,81.35 L89.6018,96.35" fill="none" style="stroke:#181818;stroke-width:0.5;"/><text fill="#000000" font-family="sans-serif" font-size="14" lengthAdjust="spacing" textLength="49.1436" x="52.03" y="110.8451">Cliente</text></g><!--entity Atendente--><g class="entity" data-entity="Atendente" data-source-line="4" data-uid="ent0003" id="entity_Atendente"><ellipse cx="637.6042" cy="238.35" fill="#F1F1F1" rx="8" ry="8" style="stroke:#181818;stroke-width:0.5;"/><path d="M637.6042,246.35 L637.6042,273.35 M624.6042,254.35 L650.6042,254.35 M637.6042,273.35 L624.6042,288.35 M637.6042,273.35 L650.6042,288.35" fill="none" style="stroke:#181818;stroke-width:0.5;"/><text fill="#000000" font-family="sans-serif" font-size="14" lengthAdjust="spacing" textLength="73.0283" x="601.09" y="302.8451">Atendente</text></g><!--entity Sistema--><g class="entity" data-entity="Sistema" data-source-line="5" data-uid="ent0004" id="entity_Sistema"><ellipse cx="76.6016" cy="180.35" fill="#F1F1F1" rx="8" ry="8" style="stroke:#181818;stroke-width:0.5;"/><path d="M76.6016,188.35 L76.6016,215.35 M63.6016,196.35 L89.6016,196.35 M76.6016,215.35 L63.6016,230.35 M76.6016,215.35 L89.6016,230.35" fill="none" style="stroke:#181818;stroke-width:0.5;"/><text fill="#000000" font-family="sans-serif" font-size="14" lengthAdjust="spacing" textLength="141.2031" x="6" y="244.8451">Sistema Autom&#225;tico</text></g><!--link Cliente to Solicitar pedido personalizado--><g class="link" data-entity-1="Cliente" data-entity-2="Solicitar pedido personalizado" data-source-line="10" data-uid="lnk7" id="link_Cliente_Solicitar pedido personalizado"><path d="M101.66,76 C128.57,76 168.14,76 211.78,76" fill="none" id="Cliente-to-Solicitar pedido personalizado" style="stroke:#181818;stroke-width:1;"/><polygon fill="#181818" points="217.78,76,208.78,72,212.78,76,208.78,80,217.78,76" style="stroke:#181818;stroke-width:1;"/></g><!--link Atendente to Registrar informa??es do pedido--><g class="link" data-entity-1="Atendente" data-entity-2="Registrar informa..es do pedido" data-source-line="14" data-uid="lnk9" id="link_Atendente_Registrar informa..es do pedido"><path d="M674.56,253.53 C709.35,237.94 761.55,210.15 794.81,172 C810.77,153.7 798.93,138.43 816.81,122 C828.9,110.9 838.2877,104.7942 853.7177,98.4742" fill="none" id="Atendente-to-Registrar informa&#231;&#245;es do pedido" style="stroke:#181818;stroke-width:1;"/><polygon fill="#181818" points="859.27,96.2,849.4254,95.9097,854.6431,98.0951,852.4577,103.3128,859.27,96.2" style="stroke:#181818;stroke-width:1;"/></g><!--link Atendente to Confirmar abertura do pedido--><g class="link" data-entity-1="Atendente" data-entity-2="Confirmar abertura do pedido" data-source-line="15" data-uid="lnk11" id="link_Atendente_Confirmar abertura do pedido"><path d="M674.39,265.46 C706.55,262.43 754.72,256.04 794.81,243 C835.61,229.74 873.7144,209.8482 903.8844,192.2882" fill="none" id="Atendente-to-Confirmar abertura do pedido" style="stroke:#181818;stroke-width:1;"/><polygon fill="#181818" points="909.07,189.27,899.2795,190.3402,904.7487,191.7852,903.3037,197.2544,909.07,189.27" style="stroke:#181818;stroke-width:1;"/></g><!--link Sistema to Validar dados do pedido--><g class="link" data-entity-1="Sistema" data-entity-2="Validar dados do pedido" data-source-line="19" data-uid="lnk13" id="link_Sistema_Validar dados do pedido"><path d="M147.47,195.79 C182.81,188.61 219.7702,181.0848 255.4002,173.8448" fill="none" id="Sistema-to-Validar dados do pedido" style="stroke:#181818;stroke-width:1;"/><polygon fill="#181818" points="261.28,172.65,251.6637,170.5223,256.3801,173.6457,253.2568,178.3621,261.28,172.65" style="stroke:#181818;stroke-width:1;"/></g><!--link Sistema to Criar pedido--><g class="link" data-entity-1="Sistema" data-entity-2="Criar pedido" data-source-line="20" data-uid="lnk15" id="link_Sistema_Criar pedido"><path d="M147.67,210.84 C224.24,211 350.41,209.07 458.39,197 C504.4,191.86 550.4723,182.7092 586.3623,174.7492" fill="none" id="Sistema-to-Criar pedido" style="stroke:#181818;stroke-width:1;"/><polygon fill="#181818" points="592.22,173.45,582.5674,171.4936,587.3386,174.5326,584.2996,179.3039,592.22,173.45" style="stroke:#181818;stroke-width:1;"/></g><!--link Registrar informa??es do pedido to Validar dados do pedido--><g class="link" data-entity-1="Registrar informa..es do pedido" data-entity-2="Validar dados do pedido" data-source-line="23" data-uid="lnk16" id="link_Registrar informa..es do pedido_Validar dados do pedido"><path d="M839.01,90 C744.11,101.47 603.05,118.97 480.39,136 C459.19,138.94 442.212,141.4194 421.002,144.6394" fill="none" id="Registrar informa&#231;&#245;es do pedido-to-Validar dados do pedido" style="stroke:#181818;stroke-width:1;"/><polygon fill="#181818" points="415.07,145.54,424.5684,148.1438,420.0134,144.7895,423.3677,140.2345,415.07,145.54" style="stroke:#181818;stroke-width:1;"/><text fill="#000000" font-family="sans-serif" font-size="13" lengthAdjust="spacing" textLength="63.0068" x="606.1" y="103.0669">&#171;include&#187;</text></g><!--link Validar dados do pedido to Criar pedido--><g class="link" data-entity-1="Validar dados do pedido" data-entity-2="Criar pedido" data-source-line="24" data-uid="lnk17" id="link_Validar dados do pedido_Criar pedido"><path d="M431.46,159.6 C478.65,160.38 528.0808,161.1999 569.4208,161.8899" fill="none" id="Validar dados do pedido-to-Criar pedido" style="stroke:#181818;stroke-width:1;"/><polygon fill="#181818" points="575.42,161.99,566.488,157.8404,570.4207,161.9066,566.3545,165.8392,575.42,161.99" style="stroke:#181818;stroke-width:1;"/><text fill="#000000" font-family="sans-serif" font-size="13" lengthAdjust="spacing" textLength="63.0068" x="481.39" y="157.0669">&#171;include&#187;</text></g><!--link Criar pedido to Confirmar abertura do pedido--><g class="link" data-entity-1="Criar pedido" data-entity-2="Confirmar abertura do pedido" data-source-line="25" data-uid="lnk18" id="link_Criar pedido_Confirmar abertura do pedido"><path d="M700.16,163.4 C738.35,163.65 782.6101,163.9316 827.9101,164.2216" fill="none" id="Criar pedido-to-Confirmar abertura do pedido" style="stroke:#181818;stroke-width:1;"/><polygon fill="#181818" points="833.91,164.26,824.9358,160.2025,828.9101,164.228,824.8846,168.2023,833.91,164.26" style="stroke:#181818;stroke-width:1;"/><text fill="#000000" font-family="sans-serif" font-size="13" lengthAdjust="spacing" textLength="63.0068" x="730.81" y="160.0669">&#171;include&#187;</text></g><!--SRC=[ZP31JiCm38RlUGgh9tReWIkQAaqz8o4cSG-9srbAO-Iw5z0U1d7W0H1Fq1SZxRg9ZXN89NBax_Fl1AmKb46etYbu4dHA78snJbcW38HHSQesYj5_gxCjjOgDXKsdtFIlIeupi2rCxyOCEXlhW93TzX- -2mpNaCEM0pbIsx_tRmoUuGuz-SI-60FfADUeEvHKmtIc993d1LmTUO6d4KoNj1nje6VhUJL2-qNLQOs3x1xh55UIZ6B5qWofFh65KJlOLqjaoR6Y10ZOHnJjn9v3oo6ENpUA7b9odpG-fRyuUDPT2fqsdutvnog_puCRMAyfkj1vB8g3Sx7tPvPB-BpXxsyxS-o_0000]--></g></svg>