<svg xmlns="http://www.w3.org/2000/svg" xmlns:xlink="http://www.w3.org/1999/xlink" contentStyleType="text/css" data-diagram-type="DESCRIPTION" height="370px" preserveAspectRatio="none" style="width:823px;height:370px;background:#FFFFFF;" version="1.1" viewBox="0 0 823 370" width="823px" zoomAndPan="magnify"><defs/><g><!--cluster M?dulo 3 - Compra de Materiais--><g class="cluster" data-entity="M.dulo 3 - Compra de Materiais" data-source-line="6" data-uid="ent0004" id="cluster_M.dulo 3 - Compra de Materiais"><rect fill="none" height="263" rx="2.5" ry="2.5" style="stroke:#181818;stroke-width:1;" width="692.13" x="125.79" y="7"/><text fill="#000000" font-family="sans-serif" font-size="14" font-weight="bold" lengthAdjust="spacing" textLength="252.0957" x="345.8071" y="21.9951">M&#243;dulo 3 - Compra de Materiais</text></g><!--entity Receber solicita??o de compra--><g class="entity" data-entity="Receber solicita..o de compra" data-source-line="8" data-uid="ent0005" id="entity_Receber solicita..o de compra"><ellipse cx="266.3266" cy="67.9973" fill="#F1F1F1" rx="118.4366" ry="26.0873" style="stroke:#181818;stroke-width:0.5;"/><text fill="#000000" font-family="sans-serif" font-size="14" lengthAdjust="spacing" textLength="216.0156" x="158.3188" y="72.6458">Receber solicita&#231;&#227;o de compra</text></g><!--entity Realizar compra com fornecedor--><g class="entity" data-entity="Realizar compra com fornecedor" data-source-line="9" data-uid="ent0007" id="entity_Realizar compra com fornecedor"><ellipse cx="266.3277" cy="155.9975" fill="#F1F1F1" rx="124.5377" ry="27.3075" style="stroke:#181818;stroke-width:0.5;"/><text fill="#000000" font-family="sans-serif" font-size="14" lengthAdjust="spacing" textLength="229.0107" x="151.8223" y="160.646">Realizar compra com fornecedor</text></g><!--entity Registrar sa?da financeira--><g class="entity" data-entity="Registrar sa.da financeira" data-source-line="10" data-uid="ent0009" id="entity_Registrar sa.da financeira"><ellipse cx="658.8907" cy="134.0001" fill="#F1F1F1" rx="101.7007" ry="22.7401" style="stroke:#181818;stroke-width:0.5;"/><text fill="#000000" font-family="sans-serif" font-size="14" lengthAdjust="spacing" textLength="179.7988" x="568.9913" y="138.6486">Registrar sa&#237;da financeira</text></g><!--entity Atualizar estoque--><g class="entity" data-entity="Atualizar estoque" data-source-line="12" data-uid="ent0011" id="entity_Atualizar estoque"><ellipse cx="266.3338" cy="236.0048" fill="#F1F1F1" rx="76.6738" ry="17.7348" style="stroke:#181818;stroke-width:0.5;"/><text fill="#000000" font-family="sans-serif" font-size="14" lengthAdjust="spacing" textLength="122.7666" x="204.9505" y="240.6532">Atualizar estoque</text></g><!--entity Notificar produ??o material dispon?vel--><g class="entity" data-entity="Notificar produ..o material dispon.vel" data-source-line="13" data-uid="ent0013" id="entity_Notificar produ..o material dispon.vel"><ellipse cx="658.8856" cy="222.9951" fill="#F1F1F1" rx="143.0256" ry="31.0051" style="stroke:#181818;stroke-width:0.5;"/><text fill="#000000" font-family="sans-serif" font-size="14" lengthAdjust="spacing" textLength="267.9346" x="524.9183" y="227.6436">Notificar produ&#231;&#227;o material dispon&#237;vel</text></g><!--entity Financeiro--><g class="entity" data-entity="Financeiro" data-source-line="3" data-uid="ent0002" id="entity_Financeiro"><ellipse cx="42.3945" cy="126.35" fill="#F1F1F1" rx="8" ry="8" style="stroke:#181818;stroke-width:0.5;"/><path d="M42.3945,134.35 L42.3945,161.35 M29.3945,142.35 L55.3945,142.35 M42.3945,161.35 L29.3945,176.35 M42.3945,161.35 L55.3945,176.35" fill="none" style="stroke:#181818;stroke-width:0.5;"/><text fill="#000000" font-family="sans-serif" font-size="14" lengthAdjust="spacing" textLength="72.7891" x="6" y="190.8451">Financeiro</text></g><!--entity Sistema--><g class="entity" data-entity="Sistema" data-source-line="4" data-uid="ent0003" id="entity_Sistema"><ellipse cx="266.3316" cy="297.35" fill="#F1F1F1" rx="8" ry="8" style="stroke:#181818;stroke-width:0.5;"/><path d="M266.3316,305.35 L266.3316,332.35 M253.3316,313.35 L279.3316,313.35 M266.3316,332.35 L253.3316,347.35 M266.3316,332.35 L279.3316,347.35" fill="none" style="stroke:#181818;stroke-width:0.5;"/><text fill="#000000" font-family="sans-serif" font-size="14" lengthAdjust="spacing" textLength="141.2031" x="195.73" y="361.8451">Sistema Autom&#225;tico</text></g><!--link Financeiro to Receber solicita??o de compra--><g class="link" data-entity-1="Financeiro" data-entity-2="Receber solicita..o de compra" data-source-line="8" data-uid="lnk6" id="link_Financeiro_Receber solicita..o de compra"><path d="M79.08,131.83 C91.03,124.45 104.66,116.77 117.79,111 C139.04,101.67 157.1265,95.3778 179.3465,88.9478" fill="none" id="Financeiro-to-Receber solicita&#231;&#227;o de compra" style="stroke:#181818;stroke-width:1;"/><polygon fill="#181818" points="185.11,87.28,175.3528,85.9394,180.3071,88.6699,177.5766,93.6241,185.11,87.28" style="stroke:#181818;stroke-width:1;"/></g><!--link Financeiro to Realizar compra com fornecedor--><g class="link" data-entity-1="Financeiro" data-entity-2="Realizar compra com fornecedor" data-source-line="9" data-uid="lnk8" id="link_Financeiro_Realizar compra com fornecedor"><path d="M79.05,156 C96.45,156 112.53,156 135.35,156" fill="none" id="Financeiro-to-Realizar compra com fornecedor" style="stroke:#181818;stroke-width:1;"/><polygon fill="#181818" points="141.35,156,132.35,152,136.35,156,132.35,160,141.35,156" style="stroke:#181818;stroke-width:1;"/></g><!--link Realizar compra com fornecedor to Registrar sa?da financeira--><g class="link" data-entity-1="Realizar compra com fornecedor" data-entity-2="Registrar sa.da financeira" data-source-line="10" data-uid="lnk10" id="link_Realizar compra com fornecedor_Registrar sa.da financeira"><path d="M387.43,149.24 C442.69,146.12 501.4395,142.818 553.7195,139.868" fill="none" id="Realizar compra com fornecedor-to-Registrar sa&#237;da financeira" style="stroke:#181818;stroke-width:1;"/><polygon fill="#181818" points="559.71,139.53,550.4989,136.0434,554.7179,139.8117,550.9496,144.0307,559.71,139.53" style="stroke:#181818;stroke-width:1;"/><text fill="#000000" font-family="sans-serif" font-size="13" lengthAdjust="spacing" textLength="63.0068" x="421.86" y="141.0669">&#171;include&#187;</text></g><!--link Financeiro to Atualizar estoque--><g class="link" data-entity-1="Financeiro" data-entity-2="Atualizar estoque" data-source-line="12" data-uid="lnk12" id="link_Financeiro_Atualizar estoque"><path d="M79.29,180.8 C91.14,188.13 104.66,195.63 117.79,201 C144.83,212.07 170.2854,218.8999 197.1054,224.4699" fill="none" id="Financeiro-to-Atualizar estoque" style="stroke:#181818;stroke-width:1;"/><polygon fill="#181818" points="202.98,225.69,194.9814,219.9435,198.0845,224.6733,193.3547,227.7764,202.98,225.69" style="stroke:#181818;stroke-width:1;"/></g><!--link Atualizar estoque to Notificar produ??o material dispon?vel--><g class="link" data-entity-1="Atualizar estoque" data-entity-2="Notificar produ..o material dispon.vel" data-source-line="13" data-uid="lnk14" id="link_Atualizar estoque_Notificar produ..o material dispon.vel"><path d="M342.63,233.5 C392.06,231.85 452.2433,229.8504 511.2033,227.8804" fill="none" id="Atualizar estoque-to-Notificar produ&#231;&#227;o material dispon&#237;vel" style="stroke:#181818;stroke-width:1;"/><polygon fill="#181818" points="517.2,227.68,508.0714,223.9828,512.2028,227.847,508.3386,231.9783,517.2,227.68" style="stroke:#181818;stroke-width:1;"/><text fill="#000000" font-family="sans-serif" font-size="13" lengthAdjust="spacing" textLength="63.0068" x="421.86" y="226.0669">&#171;include&#187;</text></g><!--link Sistema to Registrar sa?da financeira--><g class="link" data-entity-1="Sistema" data-entity-2="Registrar sa.da financeira" data-source-line="15" data-uid="lnk15" id="link_Sistema_Registrar sa.da financeira"><path d="M337.25,313.08 C384.23,300.61 444.83,278.05 485.86,239 C508.91,217.07 491.66,194.66 515.86,174 C531.55,160.62 545.6614,153.4085 565.5314,147.4685" fill="none" id="Sistema-to-Registrar sa&#237;da financeira" style="stroke:#181818;stroke-width:1;"/><polygon fill="#181818" points="571.28,145.75,561.5114,144.4954,566.4895,147.1821,563.8027,152.1602,571.28,145.75" style="stroke:#181818;stroke-width:1;"/></g><!--link Sistema to Notificar produ??o material dispon?vel--><g class="link" data-entity-1="Sistema" data-entity-2="Notificar produ..o material dispon.vel" data-source-line="16" data-uid="lnk16" id="link_Sistema_Notificar produ..o material dispon.vel"><path d="M337.28,324.15 C380.7,321.04 437.28,314.55 485.86,301 C527.4,289.41 566.3065,271.8789 599.5365,254.9089" fill="none" id="Sistema-to-Notificar produ&#231;&#227;o material dispon&#237;vel" style="stroke:#181818;stroke-width:1;"/><polygon fill="#181818" points="604.88,252.18,595.0455,252.7109,600.4271,254.454,598.6839,259.8356,604.88,252.18" style="stroke:#181818;stroke-width:1;"/></g><!--SRC=[ZP4zJiGm48LxdsAKYYrIqQ5Lf1KItLB02GPx4aPoFC6UK80u3AAWseeZ-68u9175BbhSM7fwyxxvyTGgg43axb71SIIhBC4Oj2eHRZXWiCHH5g6wvwJK8-n6bJw_Arkf01CikZ5J0eRE4rJx_EL6Bt09DLnBFqG4Hx17fSZ8gO9NOw2yNmhKTGCNTsJfWI8ayMnPCN_c3vbAxK_8veyYzFo2SJ5D7xGIGybo4kUQSwOrgIl3nE9Ac0yEeLrHk84hs6uvM3ywQfhJxUzqN2YKL9v6Mk37-ko_5UMMRT67A6wSf-tdBVboapH8o8TdyYVfwq7Ejdxi_Z_Ol7q3]--></g></svg>